<mxfile host="app.diagrams.net" modified="2022-04-08T11:35:57.425Z" agent="5.0 (Macintosh; Intel Mac OS X 10_15_7) AppleWebKit/537.36 (KHTML, like Gecko) Chrome/99.0.4844.84 Safari/537.36" etag="OBz3OsYrL3eBElNU6i35" version="17.2.4" type="github">
  <diagram id="DnCrPCSvskG4g3Pes6BI" name="Page-1">
    <mxGraphModel dx="1298" dy="834" grid="1" gridSize="10" guides="1" tooltips="1" connect="1" arrows="1" fold="1" page="1" pageScale="1" pageWidth="827" pageHeight="1169" math="0" shadow="0">
      <root>
        <mxCell id="0" />
        <mxCell id="1" parent="0" />
        <mxCell id="Teyx6J67g57r5b13pueS-1" value="" style="rounded=1;whiteSpace=wrap;html=1;" vertex="1" parent="1">
          <mxGeometry x="40" y="290" width="310" height="232" as="geometry" />
        </mxCell>
        <mxCell id="Teyx6J67g57r5b13pueS-2" value="" style="edgeStyle=orthogonalEdgeStyle;rounded=0;orthogonalLoop=1;jettySize=auto;html=1;" edge="1" parent="1" source="Teyx6J67g57r5b13pueS-22" target="Teyx6J67g57r5b13pueS-15">
          <mxGeometry relative="1" as="geometry">
            <mxPoint x="111" y="238.5" as="sourcePoint" />
          </mxGeometry>
        </mxCell>
        <mxCell id="Teyx6J67g57r5b13pueS-3" style="edgeStyle=orthogonalEdgeStyle;rounded=0;orthogonalLoop=1;jettySize=auto;html=1;entryX=0.5;entryY=0;entryDx=0;entryDy=0;" edge="1" parent="1" source="Teyx6J67g57r5b13pueS-4" target="Teyx6J67g57r5b13pueS-20">
          <mxGeometry relative="1" as="geometry" />
        </mxCell>
        <mxCell id="Teyx6J67g57r5b13pueS-4" value="" style="sketch=0;aspect=fixed;html=1;points=[];align=center;image;fontSize=12;image=img/lib/mscae/Cache_Redis_Product.svg;" vertex="1" parent="1">
          <mxGeometry x="169" y="390" width="50" height="42" as="geometry" />
        </mxCell>
        <mxCell id="Teyx6J67g57r5b13pueS-5" value="" style="verticalLabelPosition=bottom;html=1;verticalAlign=top;align=center;strokeColor=none;fillColor=#00BEF2;shape=mxgraph.azure.mysql_database;" vertex="1" parent="1">
          <mxGeometry x="240" y="456" width="37.5" height="50" as="geometry" />
        </mxCell>
        <mxCell id="Teyx6J67g57r5b13pueS-6" value="" style="edgeStyle=orthogonalEdgeStyle;rounded=0;orthogonalLoop=1;jettySize=auto;html=1;" edge="1" parent="1" source="Teyx6J67g57r5b13pueS-7" target="Teyx6J67g57r5b13pueS-17">
          <mxGeometry relative="1" as="geometry" />
        </mxCell>
        <mxCell id="Teyx6J67g57r5b13pueS-7" value="mq" style="strokeWidth=2;html=1;shape=mxgraph.flowchart.direct_data;whiteSpace=wrap;" vertex="1" parent="1">
          <mxGeometry x="229.5" y="200" width="80" height="37" as="geometry" />
        </mxCell>
        <mxCell id="Teyx6J67g57r5b13pueS-8" value="" style="edgeStyle=orthogonalEdgeStyle;rounded=0;orthogonalLoop=1;jettySize=auto;html=1;entryX=0.5;entryY=0;entryDx=0;entryDy=0;entryPerimeter=0;" edge="1" parent="1" source="Teyx6J67g57r5b13pueS-10" target="Teyx6J67g57r5b13pueS-22">
          <mxGeometry relative="1" as="geometry">
            <mxPoint x="111" y="198.5" as="targetPoint" />
          </mxGeometry>
        </mxCell>
        <mxCell id="Teyx6J67g57r5b13pueS-9" value="策略执行成功消息&lt;br&gt;uid&lt;br&gt;flowId&lt;br&gt;strategyid" style="edgeLabel;html=1;align=center;verticalAlign=middle;resizable=0;points=[];" vertex="1" connectable="0" parent="Teyx6J67g57r5b13pueS-8">
          <mxGeometry x="0.1244" y="-3" relative="1" as="geometry">
            <mxPoint y="-10" as="offset" />
          </mxGeometry>
        </mxCell>
        <mxCell id="Teyx6J67g57r5b13pueS-10" value="投放引擎服务" style="rounded=1;whiteSpace=wrap;html=1;" vertex="1" parent="1">
          <mxGeometry x="60" y="40" width="101" height="70" as="geometry" />
        </mxCell>
        <mxCell id="Teyx6J67g57r5b13pueS-11" value="" style="edgeStyle=orthogonalEdgeStyle;rounded=0;orthogonalLoop=1;jettySize=auto;html=1;" edge="1" parent="1" source="Teyx6J67g57r5b13pueS-13" target="Teyx6J67g57r5b13pueS-7">
          <mxGeometry relative="1" as="geometry" />
        </mxCell>
        <mxCell id="Teyx6J67g57r5b13pueS-12" value="uid&lt;br&gt;flowId" style="edgeLabel;html=1;align=center;verticalAlign=middle;resizable=0;points=[];" vertex="1" connectable="0" parent="Teyx6J67g57r5b13pueS-11">
          <mxGeometry x="-0.3556" y="2" relative="1" as="geometry">
            <mxPoint x="-2" y="11" as="offset" />
          </mxGeometry>
        </mxCell>
        <mxCell id="Teyx6J67g57r5b13pueS-13" value="目标收集服务" style="rounded=1;whiteSpace=wrap;html=1;" vertex="1" parent="1">
          <mxGeometry x="219" y="40" width="101" height="70" as="geometry" />
        </mxCell>
        <mxCell id="Teyx6J67g57r5b13pueS-14" style="edgeStyle=orthogonalEdgeStyle;rounded=0;orthogonalLoop=1;jettySize=auto;html=1;" edge="1" parent="1" source="Teyx6J67g57r5b13pueS-15" target="Teyx6J67g57r5b13pueS-4">
          <mxGeometry relative="1" as="geometry" />
        </mxCell>
        <mxCell id="Teyx6J67g57r5b13pueS-15" value="缓存信息" style="rounded=1;whiteSpace=wrap;html=1;" vertex="1" parent="1">
          <mxGeometry x="65.5" y="330" width="90" height="40" as="geometry" />
        </mxCell>
        <mxCell id="Teyx6J67g57r5b13pueS-16" style="edgeStyle=orthogonalEdgeStyle;rounded=0;orthogonalLoop=1;jettySize=auto;html=1;entryX=0.62;entryY=0;entryDx=0;entryDy=0;entryPerimeter=0;" edge="1" parent="1" source="Teyx6J67g57r5b13pueS-17" target="Teyx6J67g57r5b13pueS-4">
          <mxGeometry relative="1" as="geometry">
            <Array as="points">
              <mxPoint x="194" y="350" />
              <mxPoint x="194" y="390" />
            </Array>
          </mxGeometry>
        </mxCell>
        <mxCell id="Teyx6J67g57r5b13pueS-17" value="实时统计指标" style="rounded=1;whiteSpace=wrap;html=1;" vertex="1" parent="1">
          <mxGeometry x="224.5" y="330" width="90" height="40" as="geometry" />
        </mxCell>
        <mxCell id="Teyx6J67g57r5b13pueS-18" value="gaea-analysis" style="text;html=1;align=center;verticalAlign=middle;resizable=0;points=[];autosize=1;strokeColor=none;fillColor=none;" vertex="1" parent="1">
          <mxGeometry x="150" y="300" width="90" height="20" as="geometry" />
        </mxCell>
        <mxCell id="Teyx6J67g57r5b13pueS-19" value="" style="edgeStyle=orthogonalEdgeStyle;rounded=0;orthogonalLoop=1;jettySize=auto;html=1;" edge="1" parent="1" source="Teyx6J67g57r5b13pueS-20" target="Teyx6J67g57r5b13pueS-5">
          <mxGeometry relative="1" as="geometry" />
        </mxCell>
        <mxCell id="Teyx6J67g57r5b13pueS-20" value="定时按天归档" style="rounded=1;whiteSpace=wrap;html=1;" vertex="1" parent="1">
          <mxGeometry x="71" y="461" width="90" height="40" as="geometry" />
        </mxCell>
        <mxCell id="Teyx6J67g57r5b13pueS-22" value="mq" style="strokeWidth=2;html=1;shape=mxgraph.flowchart.direct_data;whiteSpace=wrap;" vertex="1" parent="1">
          <mxGeometry x="71" y="200" width="80" height="37" as="geometry" />
        </mxCell>
      </root>
    </mxGraphModel>
  </diagram>
</mxfile>
